<svg width="796" height="169" viewBox="0 0 796 169" fill="none" xmlns="http://www.w3.org/2000/svg">
<path d="M0 41.7436C0 18.6893 18.6892 0 41.7435 0H164.718V126.359C164.718 149.413 146.029 168.103 122.975 168.103H0V41.7436Z" fill="white"/>
<mask id="path-2-inside-1_295_94" fill="white">
<rect x="31.5898" y="56.6921" width="76.1539" height="76.1539" rx="10.1538"/>
</mask>
<rect x="31.5898" y="56.6921" width="76.1539" height="76.1539" rx="10.1538" stroke="black" stroke-width="27.923" mask="url(#path-2-inside-1_295_94)"/>
<rect x="57.9259" y="60.1825" width="12.0577" height="6.98078" stroke="white" stroke-width="6.98078"/>
<rect x="97.2726" y="96.9904" width="6.98078" height="12.0577" stroke="white" stroke-width="6.98078"/>
<mask id="path-5-inside-2_295_94" fill="white">
<rect x="56.9746" y="33.8461" width="76.1539" height="76.1539" rx="10.1538"/>
</mask>
<rect x="56.9746" y="33.8461" width="76.1539" height="76.1539" rx="10.1538" stroke="black" stroke-width="27.923" mask="url(#path-5-inside-2_295_94)"/>
<path d="M194.535 103V50.8215H215.121C219.062 50.8215 222.425 51.5264 225.21 52.9362C228.013 54.3289 230.144 56.3077 231.605 58.8725C233.083 61.4203 233.822 64.4181 233.822 67.8661C233.822 71.3311 233.074 74.312 231.58 76.8088C230.085 79.2887 227.919 81.191 225.083 82.5159C222.263 83.8407 218.849 84.5031 214.841 84.5031H201.057V75.6369H213.057C215.164 75.6369 216.913 75.3481 218.306 74.7706C219.699 74.1931 220.735 73.3269 221.414 72.1719C222.11 71.0169 222.459 69.5816 222.459 67.8661C222.459 66.1337 222.11 64.6729 221.414 63.484C220.735 62.295 219.69 61.3948 218.28 60.7833C216.888 60.1549 215.13 59.8406 213.006 59.8406H205.567V103H194.535ZM222.713 79.2547L235.682 103H223.503L210.815 79.2547H222.713ZM241.618 103V50.8215H276.777V59.9171H252.65V72.3502H274.968V81.4458H252.65V93.9044H276.879V103H241.618ZM320.147 67.6878C319.79 66.4479 319.289 65.3523 318.644 64.4012C317.998 63.433 317.208 62.6177 316.274 61.9553C315.357 61.2759 314.304 60.7578 313.115 60.4012C311.943 60.0445 310.644 59.8661 309.217 59.8661C306.55 59.8661 304.206 60.5285 302.185 61.8534C300.181 63.1782 298.618 65.106 297.497 67.6368C296.376 70.1506 295.816 73.225 295.816 76.8598C295.816 80.4946 296.368 83.5859 297.472 86.1337C298.576 88.6815 300.138 90.6263 302.16 91.9681C304.181 93.293 306.567 93.9554 309.319 93.9554C311.816 93.9554 313.947 93.5138 315.714 92.6305C317.497 91.7303 318.856 90.4649 319.79 88.8344C320.741 87.2038 321.217 85.276 321.217 83.0509L323.459 83.3821H310.007V75.0764H331.841V81.6496C331.841 86.2356 330.873 90.1762 328.937 93.4713C327 96.7495 324.334 99.2802 320.937 101.064C317.54 102.83 313.65 103.713 309.268 103.713C304.376 103.713 300.079 102.635 296.376 100.478C292.673 98.3036 289.786 95.2208 287.714 91.2293C285.658 87.2208 284.631 82.4649 284.631 76.9617C284.631 72.7324 285.242 68.9617 286.465 65.6496C287.705 62.3205 289.438 59.5009 291.663 57.191C293.888 54.881 296.478 53.123 299.433 51.917C302.389 50.7111 305.591 50.1081 309.039 50.1081C311.994 50.1081 314.746 50.5412 317.293 51.4075C319.841 52.2568 322.1 53.4627 324.07 55.0253C326.058 56.588 327.68 58.4479 328.937 60.605C330.194 62.7451 331 65.106 331.357 67.6878H320.147ZM347.51 103H335.688L353.701 50.8215H367.918L385.905 103H374.083L361.013 62.7451H360.606L347.51 103ZM346.771 82.4904H374.695V91.1019H346.771V82.4904ZM392.185 103V50.8215H412.771C416.712 50.8215 420.075 51.5264 422.861 52.9362C425.663 54.3289 427.795 56.3077 429.255 58.8725C430.733 61.4203 431.472 64.4181 431.472 67.8661C431.472 71.3311 430.725 74.312 429.23 76.8088C427.735 79.2887 425.57 81.191 422.733 82.5159C419.914 83.8407 416.5 84.5031 412.491 84.5031H398.708V75.6369H410.708C412.814 75.6369 414.563 75.3481 415.956 74.7706C417.349 74.1931 418.385 73.3269 419.064 72.1719C419.761 71.0169 420.109 69.5816 420.109 67.8661C420.109 66.1337 419.761 64.6729 419.064 63.484C418.385 62.295 417.34 61.3948 415.931 60.7833C414.538 60.1549 412.78 59.8406 410.657 59.8406H403.217V103H392.185ZM420.364 79.2547L433.332 103H421.154L408.466 79.2547H420.364ZM453.886 59.9171V50.8215H496.74V59.9171H480.765V103H469.861V59.9171H453.886ZM506.415 103H494.593L512.606 50.8215H526.823L544.81 103H532.988L519.918 62.7451H519.511L506.415 103ZM505.676 82.4904H533.6V91.1019H505.676V82.4904ZM551.09 103V50.8215H562.122V93.9044H584.492V103H551.09ZM591.797 103V50.8215H626.957V59.9171H602.829V72.3502H625.148V81.4458H602.829V93.9044H627.059V103H591.797ZM679.371 50.8215V103H669.842L647.141 70.1591H646.759V103H635.727V50.8215H645.409L667.931 83.6369H668.39V50.8215H679.371ZM686.498 59.9171V50.8215H729.352V59.9171H713.377V103H702.473V59.9171H686.498ZM745.301 50.8215V56.3247C745.301 57.8873 744.995 59.4839 744.384 61.1145C743.789 62.7281 742.991 64.2568 741.989 65.7005C740.987 67.1273 739.891 68.3417 738.702 69.3439L733.912 66.5158C734.762 65.174 735.509 63.6878 736.154 62.0572C736.817 60.4266 737.148 58.5328 737.148 56.3757V50.8215H745.301ZM781.04 65.8279C780.836 63.7727 779.961 62.1761 778.416 61.0381C776.87 59.9001 774.772 59.3311 772.123 59.3311C770.322 59.3311 768.802 59.5859 767.562 60.0954C766.322 60.588 765.371 61.2759 764.709 62.1591C764.063 63.0423 763.74 64.0445 763.74 65.1655C763.707 66.0997 763.902 66.915 764.326 67.6114C764.768 68.3078 765.371 68.9107 766.135 69.4203C766.9 69.9129 767.783 70.346 768.785 70.7197C769.787 71.0763 770.857 71.3821 771.995 71.6369L776.683 72.7579C778.959 73.2674 781.048 73.9468 782.951 74.7961C784.853 75.6454 786.501 76.6899 787.893 77.9299C789.286 79.1698 790.365 80.6305 791.129 82.312C791.91 83.9936 792.31 85.9214 792.327 88.0955C792.31 91.2887 791.494 94.0573 789.881 96.4013C788.284 98.7282 785.974 100.537 782.951 101.828C779.944 103.102 776.318 103.739 772.072 103.739C767.859 103.739 764.191 103.093 761.065 101.803C757.957 100.512 755.528 98.6008 753.779 96.07C752.046 93.5223 751.137 90.3715 751.053 86.6178H761.728C761.847 88.3673 762.348 89.828 763.231 91C764.131 92.155 765.329 93.0297 766.823 93.6242C768.335 94.2017 770.042 94.4904 771.944 94.4904C773.813 94.4904 775.435 94.2187 776.811 93.6751C778.203 93.1316 779.282 92.3758 780.046 91.4076C780.811 90.4395 781.193 89.3269 781.193 88.07C781.193 86.898 780.845 85.9129 780.148 85.1146C779.469 84.3163 778.467 83.6369 777.142 83.0764C775.834 82.5159 774.229 82.0063 772.326 81.5477L766.645 80.121C762.246 79.0509 758.772 77.3778 756.225 75.1018C753.677 72.8258 752.411 69.76 752.428 65.9043C752.411 62.7451 753.252 59.985 754.951 57.6241C756.666 55.2631 759.019 53.4202 762.008 52.0954C764.997 50.7705 768.394 50.1081 772.199 50.1081C776.072 50.1081 779.452 50.7705 782.339 52.0954C785.244 53.4202 787.503 55.2631 789.116 57.6241C790.73 59.985 791.562 62.7196 791.613 65.8279H781.04Z" fill="white"/>
<path d="M194.229 30H190.917L200.497 3.91075H203.758L213.338 30H210.026L202.229 8.03815H202.026L194.229 30ZM195.452 19.8089H208.803V22.6114H195.452V19.8089ZM224.382 30.4076C222.752 30.4076 221.312 29.9958 220.064 29.172C218.815 28.3397 217.839 27.1677 217.134 25.656C216.429 24.1359 216.077 22.3397 216.077 20.2675C216.077 18.2123 216.429 16.4288 217.134 14.9172C217.839 13.4055 218.82 12.2377 220.077 11.414C221.333 10.5902 222.786 10.1783 224.433 10.1783C225.707 10.1783 226.713 10.3906 227.452 10.8152C228.2 11.2314 228.769 11.707 229.159 12.242C229.559 12.7685 229.868 13.2016 230.089 13.5414H230.344V3.91075H233.35V30H230.446V26.9936H230.089C229.868 27.3503 229.554 27.8004 229.147 28.3439C228.739 28.879 228.157 29.3588 227.401 29.7834C226.646 30.1996 225.639 30.4076 224.382 30.4076ZM224.79 27.707C225.996 27.707 227.015 27.3928 227.847 26.7643C228.68 26.1274 229.312 25.2484 229.745 24.1274C230.178 22.9979 230.395 21.6942 230.395 20.2165C230.395 18.7558 230.183 17.4777 229.758 16.3821C229.333 15.2781 228.705 14.4203 227.873 13.8089C227.04 13.1889 226.013 12.8789 224.79 12.8789C223.516 12.8789 222.454 13.2059 221.605 13.8598C220.764 14.5053 220.132 15.3842 219.707 16.4968C219.291 17.6008 219.083 18.8407 219.083 20.2165C219.083 21.6093 219.295 22.8747 219.72 24.0127C220.153 25.1422 220.79 26.0425 221.631 26.7134C222.48 27.3758 223.533 27.707 224.79 27.707ZM239.274 30V10.4331H242.178V13.4904H242.433C242.841 12.4458 243.499 11.6348 244.408 11.0573C245.317 10.4713 246.408 10.1783 247.682 10.1783C248.973 10.1783 250.047 10.4713 250.905 11.0573C251.771 11.6348 252.446 12.4458 252.93 13.4904H253.134C253.635 12.4798 254.387 11.6772 255.389 11.0827C256.391 10.4798 257.593 10.1783 258.994 10.1783C260.743 10.1783 262.174 10.7261 263.287 11.8216C264.399 12.9087 264.956 14.6029 264.956 16.9044V30H261.949V16.9044C261.949 15.4607 261.554 14.4288 260.765 13.8089C259.975 13.1889 259.045 12.8789 257.975 12.8789C256.599 12.8789 255.533 13.2951 254.777 14.1273C254.021 14.9511 253.644 15.9957 253.644 17.2611V30H250.586V16.5987C250.586 15.4862 250.225 14.5902 249.503 13.9108C248.781 13.2229 247.852 12.8789 246.714 12.8789C245.932 12.8789 245.202 13.087 244.522 13.5031C243.852 13.9193 243.308 14.4968 242.892 15.2356C242.484 15.966 242.28 16.811 242.28 17.7707V30H239.274ZM270.452 30V10.4331H273.459V30H270.452ZM271.981 7.17191C271.395 7.17191 270.89 6.97233 270.465 6.57318C270.049 6.17403 269.841 5.69419 269.841 5.13368C269.841 4.57317 270.049 4.09334 270.465 3.69419C270.89 3.29504 271.395 3.09546 271.981 3.09546C272.567 3.09546 273.068 3.29504 273.484 3.69419C273.909 4.09334 274.121 4.57317 274.121 5.13368C274.121 5.69419 273.909 6.17403 273.484 6.57318C273.068 6.97233 272.567 7.17191 271.981 7.17191ZM281.972 18.2293V30H278.965V10.4331H281.87V13.4904H282.124C282.583 12.4968 283.279 11.6985 284.214 11.0955C285.148 10.484 286.354 10.1783 287.832 10.1783C289.156 10.1783 290.316 10.45 291.309 10.9936C292.303 11.5286 293.076 12.3439 293.628 13.4394C294.18 14.5265 294.456 15.9023 294.456 17.5668V30H291.449V17.7707C291.449 16.2335 291.05 15.036 290.252 14.1783C289.454 13.3121 288.358 12.8789 286.965 12.8789C286.006 12.8789 285.148 13.087 284.392 13.5031C283.645 13.9193 283.054 14.5265 282.621 15.3248C282.188 16.1231 281.972 17.0913 281.972 18.2293ZM324.714 10.4331C324.561 9.14219 323.941 8.14006 322.854 7.42668C321.767 6.71331 320.434 6.35662 318.854 6.35662C317.699 6.35662 316.688 6.54345 315.822 6.91713C314.964 7.2908 314.293 7.8046 313.809 8.45853C313.334 9.11246 313.096 9.85556 313.096 10.6878C313.096 11.3842 313.262 11.983 313.593 12.484C313.932 12.9766 314.366 13.3885 314.892 13.7197C315.419 14.0424 315.971 14.3099 316.548 14.5222C317.126 14.7261 317.656 14.8917 318.141 15.0191L320.79 15.7324C321.47 15.9108 322.225 16.1571 323.058 16.4713C323.898 16.7855 324.701 17.2144 325.465 17.7579C326.238 18.293 326.875 18.9809 327.376 19.8216C327.877 20.6624 328.128 21.6942 328.128 22.9172C328.128 24.3269 327.758 25.6008 327.02 26.7388C326.289 27.8769 325.219 28.7813 323.809 29.4522C322.408 30.1231 320.705 30.4586 318.701 30.4586C316.833 30.4586 315.215 30.1571 313.848 29.5541C312.489 28.9512 311.419 28.1104 310.637 27.0318C309.864 25.9533 309.427 24.7006 309.325 23.2739H312.586C312.671 24.259 313.002 25.0743 313.58 25.7197C314.166 26.3567 314.905 26.8323 315.797 27.1465C316.697 27.4522 317.665 27.6051 318.701 27.6051C319.907 27.6051 320.99 27.4098 321.949 27.0191C322.909 26.6199 323.669 26.0679 324.23 25.363C324.79 24.6497 325.07 23.8174 325.07 22.8662C325.07 22 324.828 21.2951 324.344 20.7516C323.86 20.208 323.223 19.7664 322.434 19.4267C321.644 19.087 320.79 18.7898 319.873 18.535L316.663 17.6178C314.625 17.0318 313.011 16.1953 311.822 15.1082C310.633 14.0212 310.039 12.5987 310.039 10.8407C310.039 9.37998 310.433 8.10609 311.223 7.01904C312.022 5.92349 313.092 5.07423 314.433 4.47126C315.784 3.85979 317.291 3.55406 318.956 3.55406C320.637 3.55406 322.132 3.85555 323.44 4.45852C324.748 5.053 325.784 5.86829 326.548 6.90439C327.321 7.94048 327.729 9.11671 327.771 10.4331H324.714ZM341.118 30.4076C339.233 30.4076 337.607 29.9915 336.239 29.1592C334.88 28.3185 333.832 27.1465 333.093 25.6433C332.362 24.1316 331.997 22.3737 331.997 20.3694C331.997 18.3651 332.362 16.5987 333.093 15.07C333.832 13.5329 334.859 12.3354 336.176 11.4777C337.5 10.6114 339.046 10.1783 340.813 10.1783C341.832 10.1783 342.838 10.3481 343.832 10.6878C344.825 11.0275 345.73 11.5796 346.545 12.3439C347.36 13.0997 348.01 14.1019 348.494 15.3503C348.978 16.5987 349.22 18.1358 349.22 19.9618V21.2356H334.137V18.6369H346.163C346.163 17.5329 345.942 16.5477 345.5 15.6815C345.067 14.8152 344.447 14.1316 343.641 13.6305C342.842 13.1295 341.9 12.8789 340.813 12.8789C339.615 12.8789 338.579 13.1762 337.704 13.7707C336.838 14.3566 336.171 15.121 335.704 16.0637C335.237 17.0063 335.004 18.0169 335.004 19.0955V20.828C335.004 22.3057 335.258 23.5584 335.768 24.586C336.286 25.6051 337.004 26.3822 337.921 26.9172C338.838 27.4437 339.904 27.707 341.118 27.707C341.908 27.707 342.621 27.5966 343.258 27.3758C343.904 27.1465 344.46 26.8068 344.927 26.3567C345.394 25.8981 345.755 25.3291 346.01 24.6497L348.914 25.465C348.609 26.4501 348.095 27.3163 347.373 28.0637C346.651 28.8025 345.759 29.38 344.698 29.7962C343.636 30.2038 342.443 30.4076 341.118 30.4076ZM353.793 30V10.4331H356.698V13.3885H356.902C357.258 12.4203 357.904 11.6348 358.838 11.0318C359.772 10.4288 360.825 10.1273 361.997 10.1273C362.218 10.1273 362.494 10.1316 362.825 10.1401C363.157 10.1486 363.407 10.1613 363.577 10.1783V13.2356C363.475 13.2101 363.241 13.1719 362.876 13.121C362.52 13.0615 362.142 13.0318 361.743 13.0318C360.791 13.0318 359.942 13.2314 359.195 13.6305C358.456 14.0212 357.87 14.5647 357.437 15.2611C357.012 15.949 356.8 16.7346 356.8 17.6178V30H353.793ZM383.736 10.4331L376.501 30H373.443L366.208 10.4331H369.469L374.87 26.0255H375.074L380.475 10.4331H383.736ZM387.704 30V10.4331H390.711V30H387.704ZM389.233 7.17191C388.647 7.17191 388.142 6.97233 387.717 6.57318C387.301 6.17403 387.093 5.69419 387.093 5.13368C387.093 4.57317 387.301 4.09334 387.717 3.69419C388.142 3.29504 388.647 3.09546 389.233 3.09546C389.819 3.09546 390.32 3.29504 390.736 3.69419C391.161 4.09334 391.373 4.57317 391.373 5.13368C391.373 5.69419 391.161 6.17403 390.736 6.57318C390.32 6.97233 389.819 7.17191 389.233 7.17191ZM404.166 30.4076C402.332 30.4076 400.752 29.9745 399.427 29.1083C398.103 28.242 397.083 27.0488 396.37 25.5286C395.657 24.0085 395.3 22.2717 395.3 20.3184C395.3 18.3312 395.665 16.5775 396.396 15.0573C397.134 13.5286 398.162 12.3354 399.478 11.4777C400.803 10.6114 402.349 10.1783 404.115 10.1783C405.491 10.1783 406.731 10.4331 407.835 10.9426C408.939 11.4522 409.844 12.1656 410.548 13.0828C411.253 14 411.691 15.07 411.861 16.293H408.854C408.625 15.4012 408.115 14.6114 407.325 13.9235C406.544 13.2271 405.491 12.8789 404.166 12.8789C402.994 12.8789 401.967 13.1847 401.083 13.7961C400.209 14.3991 399.525 15.2526 399.032 16.3566C398.548 17.4522 398.306 18.7388 398.306 20.2165C398.306 21.7282 398.544 23.0446 399.02 24.1656C399.504 25.2866 400.183 26.1571 401.058 26.7771C401.941 27.397 402.977 27.707 404.166 27.707C404.948 27.707 405.657 27.5711 406.294 27.2994C406.931 27.0276 407.47 26.6369 407.911 26.1274C408.353 25.6178 408.667 25.0064 408.854 24.293H411.861C411.691 25.448 411.27 26.4883 410.599 27.414C409.937 28.3312 409.058 29.0616 407.962 29.6051C406.875 30.1401 405.61 30.4076 404.166 30.4076ZM424.459 30.4076C422.574 30.4076 420.948 29.9915 419.58 29.1592C418.221 28.3185 417.173 27.1465 416.434 25.6433C415.703 24.1316 415.338 22.3737 415.338 20.3694C415.338 18.3651 415.703 16.5987 416.434 15.07C417.173 13.5329 418.2 12.3354 419.517 11.4777C420.841 10.6114 422.387 10.1783 424.154 10.1783C425.173 10.1783 426.179 10.3481 427.173 10.6878C428.166 11.0275 429.071 11.5796 429.886 12.3439C430.701 13.0997 431.351 14.1019 431.835 15.3503C432.319 16.5987 432.561 18.1358 432.561 19.9618V21.2356H417.478V18.6369H429.504C429.504 17.5329 429.283 16.5477 428.841 15.6815C428.408 14.8152 427.788 14.1316 426.982 13.6305C426.183 13.1295 425.241 12.8789 424.154 12.8789C422.956 12.8789 421.92 13.1762 421.045 13.7707C420.179 14.3566 419.512 15.121 419.045 16.0637C418.578 17.0063 418.345 18.0169 418.345 19.0955V20.828C418.345 22.3057 418.599 23.5584 419.109 24.586C419.627 25.6051 420.345 26.3822 421.262 26.9172C422.179 27.4437 423.245 27.707 424.459 27.707C425.249 27.707 425.962 27.5966 426.599 27.3758C427.245 27.1465 427.801 26.8068 428.268 26.3567C428.735 25.8981 429.096 25.3291 429.351 24.6497L432.255 25.465C431.95 26.4501 431.436 27.3163 430.714 28.0637C429.992 28.8025 429.1 29.38 428.039 29.7962C426.977 30.2038 425.784 30.4076 424.459 30.4076Z" fill="white"/>
<path d="M214.525 126.405H212.167C211.992 125.527 211.674 124.716 211.214 123.972C210.763 123.22 210.194 122.564 209.509 122.004C208.823 121.444 208.046 121.009 207.177 120.7C206.307 120.39 205.367 120.236 204.355 120.236C202.733 120.236 201.253 120.658 199.916 121.502C198.587 122.346 197.521 123.588 196.718 125.226C195.924 126.857 195.527 128.855 195.527 131.221C195.527 133.603 195.924 135.609 196.718 137.24C197.521 138.87 198.587 140.107 199.916 140.952C201.253 141.787 202.733 142.205 204.355 142.205C205.367 142.205 206.307 142.051 207.177 141.742C208.046 141.432 208.823 141.002 209.509 140.45C210.194 139.89 210.763 139.234 211.214 138.481C211.674 137.729 211.992 136.914 212.167 136.036H214.525C214.316 137.215 213.923 138.314 213.346 139.334C212.778 140.345 212.05 141.232 211.164 141.992C210.286 142.753 209.275 143.347 208.13 143.773C206.984 144.199 205.726 144.413 204.355 144.413C202.198 144.413 200.284 143.873 198.612 142.795C196.94 141.708 195.627 140.178 194.674 138.205C193.73 136.232 193.257 133.904 193.257 131.221C193.257 128.537 193.73 126.209 194.674 124.236C195.627 122.263 196.94 120.737 198.612 119.659C200.284 118.572 202.198 118.029 204.355 118.029C205.726 118.029 206.984 118.242 208.13 118.668C209.275 119.086 210.286 119.68 211.164 120.449C212.05 121.209 212.778 122.096 213.346 123.107C213.923 124.119 214.316 125.218 214.525 126.405ZM235.831 144.463C234.034 144.463 232.479 144.045 231.167 143.209C229.854 142.364 228.838 141.198 228.119 139.71C227.409 138.214 227.053 136.491 227.053 134.544C227.053 132.604 227.409 130.882 228.119 129.377C228.838 127.864 229.829 126.681 231.091 125.828C232.362 124.967 233.829 124.537 235.493 124.537C236.538 124.537 237.545 124.729 238.515 125.114C239.485 125.49 240.354 126.071 241.123 126.857C241.901 127.634 242.515 128.616 242.967 129.804C243.418 130.982 243.644 132.378 243.644 133.992V135.095H228.596V133.127H241.361C241.361 131.889 241.111 130.777 240.609 129.791C240.116 128.796 239.426 128.01 238.54 127.433C237.662 126.857 236.646 126.568 235.493 126.568C234.272 126.568 233.198 126.894 232.27 127.546C231.342 128.198 230.615 129.059 230.088 130.13C229.57 131.2 229.306 132.37 229.298 133.641V134.819C229.298 136.349 229.561 137.687 230.088 138.832C230.623 139.969 231.38 140.851 232.358 141.478C233.336 142.105 234.494 142.419 235.831 142.419C236.743 142.419 237.541 142.277 238.226 141.992C238.92 141.708 239.501 141.328 239.97 140.851C240.446 140.366 240.806 139.835 241.048 139.259L243.167 139.948C242.875 140.759 242.394 141.507 241.725 142.193C241.065 142.878 240.237 143.43 239.242 143.848C238.256 144.258 237.119 144.463 235.831 144.463ZM257.037 151.284V124.8H259.207V128.474H259.47C259.738 127.897 260.106 127.308 260.574 126.706C261.042 126.096 261.661 125.582 262.43 125.164C263.207 124.746 264.185 124.537 265.364 124.537C266.952 124.537 268.34 124.955 269.527 125.791C270.723 126.618 271.651 127.78 272.311 129.277C272.98 130.765 273.314 132.5 273.314 134.481C273.314 136.471 272.98 138.214 272.311 139.71C271.651 141.206 270.723 142.373 269.527 143.209C268.34 144.045 266.961 144.463 265.389 144.463C264.227 144.463 263.253 144.254 262.467 143.836C261.69 143.418 261.059 142.904 260.574 142.293C260.097 141.675 259.729 141.073 259.47 140.488H259.27V151.284H257.037ZM259.245 134.443C259.245 135.998 259.474 137.378 259.934 138.581C260.402 139.777 261.071 140.717 261.941 141.403C262.818 142.08 263.88 142.419 265.126 142.419C266.405 142.419 267.483 142.068 268.361 141.365C269.247 140.655 269.92 139.698 270.38 138.494C270.848 137.29 271.082 135.94 271.082 134.443C271.082 132.964 270.852 131.63 270.393 130.443C269.941 129.256 269.272 128.315 268.386 127.622C267.5 126.919 266.413 126.568 265.126 126.568C263.872 126.568 262.806 126.907 261.928 127.584C261.05 128.253 260.381 129.181 259.922 130.368C259.47 131.547 259.245 132.905 259.245 134.443ZM292.066 144.5C290.904 144.5 289.842 144.275 288.881 143.823C287.919 143.363 287.154 142.703 286.586 141.842C286.017 140.972 285.733 139.919 285.733 138.682C285.733 137.729 285.913 136.926 286.272 136.274C286.632 135.622 287.142 135.087 287.802 134.669C288.463 134.251 289.244 133.921 290.147 133.678C291.05 133.436 292.045 133.248 293.132 133.114C294.21 132.98 295.121 132.863 295.865 132.763C296.618 132.663 297.19 132.504 297.583 132.286C297.976 132.069 298.173 131.718 298.173 131.233V130.782C298.173 129.469 297.78 128.437 296.994 127.684C296.216 126.924 295.096 126.543 293.633 126.543C292.245 126.543 291.113 126.848 290.235 127.459C289.365 128.069 288.755 128.788 288.404 129.615L286.285 128.85C286.72 127.797 287.321 126.957 288.091 126.33C288.86 125.695 289.721 125.239 290.674 124.963C291.627 124.679 292.592 124.537 293.571 124.537C294.306 124.537 295.071 124.633 295.865 124.825C296.668 125.017 297.412 125.352 298.097 125.828C298.783 126.297 299.339 126.953 299.765 127.797C300.192 128.633 300.405 129.695 300.405 130.982V144.061H298.173V141.014H298.035C297.767 141.583 297.37 142.134 296.843 142.669C296.317 143.205 295.656 143.643 294.862 143.986C294.068 144.329 293.136 144.5 292.066 144.5ZM292.367 142.456C293.554 142.456 294.582 142.193 295.452 141.666C296.321 141.14 296.99 140.442 297.458 139.572C297.934 138.694 298.173 137.729 298.173 136.675V133.892C298.006 134.05 297.725 134.192 297.333 134.318C296.948 134.443 296.501 134.556 295.991 134.656C295.489 134.748 294.988 134.828 294.486 134.895C293.984 134.962 293.533 135.02 293.132 135.07C292.045 135.204 291.117 135.413 290.348 135.697C289.579 135.982 288.989 136.374 288.58 136.876C288.17 137.369 287.965 138.005 287.965 138.782C287.965 139.952 288.383 140.86 289.219 141.503C290.055 142.139 291.104 142.456 292.367 142.456ZM322.404 124.8V126.744H313.212V124.8H322.404ZM316.084 120.185H318.329V139.033C318.329 139.835 318.467 140.467 318.742 140.926C319.018 141.378 319.378 141.7 319.821 141.892C320.264 142.076 320.736 142.168 321.238 142.168C321.53 142.168 321.781 142.151 321.99 142.118C322.199 142.076 322.383 142.034 322.542 141.992L323.019 144.011C322.801 144.095 322.534 144.17 322.216 144.237C321.898 144.312 321.505 144.35 321.037 144.35C320.218 144.35 319.428 144.17 318.667 143.811C317.915 143.451 317.296 142.916 316.811 142.205C316.326 141.495 316.084 140.613 316.084 139.56V120.185ZM339.66 140.55L339.434 141.892C339.292 142.795 339.092 143.79 338.833 144.876C338.573 145.963 338.306 146.996 338.03 147.974C337.754 148.952 337.516 149.738 337.315 150.331H335.597C335.706 149.763 335.844 149.04 336.011 148.162C336.187 147.284 336.366 146.31 336.55 145.24C336.734 144.178 336.901 143.083 337.052 141.955L337.227 140.55H339.66ZM372.953 144.061H370.495L379.837 118.38H382.345L391.687 144.061H389.23L381.179 121.427H381.003L372.953 144.061ZM374.721 134.218H387.461V136.324H374.721V134.218ZM404.1 144.061V124.8H406.269V127.76H406.47C406.855 126.765 407.494 125.983 408.389 125.415C409.291 124.838 410.374 124.549 411.636 124.549C412.966 124.549 414.057 124.863 414.909 125.49C415.77 126.108 416.414 126.961 416.841 128.048H417.004C417.438 126.978 418.145 126.129 419.123 125.502C420.109 124.867 421.305 124.549 422.709 124.549C424.498 124.549 425.911 125.114 426.948 126.242C427.984 127.362 428.503 129.001 428.503 131.158V144.061H426.271V131.158C426.271 129.636 425.882 128.495 425.104 127.734C424.327 126.974 423.303 126.593 422.032 126.593C420.561 126.593 419.428 127.045 418.634 127.948C417.84 128.85 417.442 129.996 417.442 131.384V144.061H415.16V130.957C415.16 129.653 414.796 128.6 414.069 127.797C413.342 126.995 412.318 126.593 410.997 126.593C410.111 126.593 409.312 126.811 408.602 127.245C407.9 127.68 407.344 128.286 406.934 129.064C406.533 129.833 406.332 130.719 406.332 131.722V144.061H404.1ZM448.267 144.5C447.105 144.5 446.043 144.275 445.082 143.823C444.12 143.363 443.355 142.703 442.787 141.842C442.218 140.972 441.934 139.919 441.934 138.682C441.934 137.729 442.114 136.926 442.473 136.274C442.833 135.622 443.343 135.087 444.003 134.669C444.664 134.251 445.445 133.921 446.348 133.678C447.251 133.436 448.246 133.248 449.333 133.114C450.411 132.98 451.322 132.863 452.066 132.763C452.819 132.663 453.391 132.504 453.784 132.286C454.177 132.069 454.374 131.718 454.374 131.233V130.782C454.374 129.469 453.981 128.437 453.195 127.684C452.417 126.924 451.297 126.543 449.834 126.543C448.446 126.543 447.314 126.848 446.436 127.459C445.566 128.069 444.956 128.788 444.605 129.615L442.486 128.85C442.92 127.797 443.522 126.957 444.292 126.33C445.061 125.695 445.922 125.239 446.875 124.963C447.828 124.679 448.793 124.537 449.771 124.537C450.507 124.537 451.272 124.633 452.066 124.825C452.869 125.017 453.613 125.352 454.298 125.828C454.984 126.297 455.54 126.953 455.966 127.797C456.393 128.633 456.606 129.695 456.606 130.982V144.061H454.374V141.014H454.236C453.968 141.583 453.571 142.134 453.044 142.669C452.518 143.205 451.857 143.643 451.063 143.986C450.269 144.329 449.337 144.5 448.267 144.5ZM448.568 142.456C449.755 142.456 450.783 142.193 451.652 141.666C452.522 141.14 453.191 140.442 453.659 139.572C454.135 138.694 454.374 137.729 454.374 136.675V133.892C454.206 134.05 453.926 134.192 453.533 134.318C453.149 134.443 452.702 134.556 452.192 134.656C451.69 134.748 451.188 134.828 450.687 134.895C450.185 134.962 449.734 135.02 449.333 135.07C448.246 135.204 447.318 135.413 446.549 135.697C445.78 135.982 445.19 136.374 444.781 136.876C444.371 137.369 444.166 138.005 444.166 138.782C444.166 139.952 444.584 140.86 445.42 141.503C446.256 142.139 447.305 142.456 448.568 142.456ZM473.25 132.023V144.061H471.018V124.8H473.188V127.822H473.388C473.84 126.836 474.542 126.046 475.495 125.452C476.457 124.85 477.644 124.549 479.056 124.549C480.352 124.549 481.489 124.821 482.467 125.364C483.454 125.899 484.219 126.689 484.762 127.734C485.314 128.779 485.59 130.063 485.59 131.584V144.061H483.358V131.722C483.358 130.142 482.915 128.892 482.028 127.973C481.151 127.053 479.972 126.593 478.492 126.593C477.481 126.593 476.582 126.811 475.796 127.245C475.01 127.68 474.387 128.307 473.928 129.126C473.476 129.937 473.25 130.903 473.25 132.023ZM503.655 140.55L503.429 141.892C503.287 142.795 503.086 143.79 502.827 144.876C502.568 145.963 502.3 146.996 502.024 147.974C501.749 148.952 501.51 149.738 501.31 150.331H499.592C499.7 149.763 499.838 149.04 500.006 148.162C500.181 147.284 500.361 146.31 500.545 145.24C500.729 144.178 500.896 143.083 501.046 141.955L501.222 140.55H503.655ZM535.355 120.486V118.38H553.976V120.486H545.838V144.061H543.493V120.486H535.355ZM572.261 144.463C570.463 144.463 568.908 144.045 567.596 143.209C566.283 142.364 565.268 141.198 564.549 139.71C563.838 138.214 563.483 136.491 563.483 134.544C563.483 132.604 563.838 130.882 564.549 129.377C565.268 127.864 566.258 126.681 567.521 125.828C568.791 124.967 570.259 124.537 571.922 124.537C572.967 124.537 573.975 124.729 574.944 125.114C575.914 125.49 576.784 126.071 577.553 126.857C578.33 127.634 578.945 128.616 579.396 129.804C579.847 130.982 580.073 132.378 580.073 133.992V135.095H565.025V133.127H577.791C577.791 131.889 577.54 130.777 577.039 129.791C576.545 128.796 575.856 128.01 574.969 127.433C574.092 126.857 573.076 126.568 571.922 126.568C570.702 126.568 569.627 126.894 568.699 127.546C567.772 128.198 567.044 129.059 566.518 130.13C565.999 131.2 565.736 132.37 565.728 133.641V134.819C565.728 136.349 565.991 137.687 566.518 138.832C567.053 139.969 567.809 140.851 568.787 141.478C569.765 142.105 570.923 142.419 572.261 142.419C573.172 142.419 573.97 142.277 574.656 141.992C575.35 141.708 575.931 141.328 576.399 140.851C576.876 140.366 577.235 139.835 577.477 139.259L579.597 139.948C579.304 140.759 578.823 141.507 578.155 142.193C577.494 142.878 576.667 143.43 575.672 143.848C574.685 144.258 573.548 144.463 572.261 144.463ZM593.467 144.061V124.8H595.636V127.76H595.799C596.184 126.79 596.853 126.008 597.806 125.415C598.767 124.813 599.854 124.512 601.066 124.512C601.25 124.512 601.455 124.516 601.681 124.524C601.906 124.533 602.094 124.541 602.245 124.549V126.819C602.145 126.802 601.969 126.777 601.718 126.744C601.467 126.71 601.196 126.694 600.903 126.694C599.9 126.694 599.005 126.907 598.22 127.333C597.442 127.751 596.828 128.332 596.376 129.076C595.925 129.82 595.699 130.669 595.699 131.622V144.061H593.467ZM614.529 151.284V124.8H616.698V128.474H616.962C617.229 127.897 617.597 127.308 618.065 126.706C618.533 126.096 619.152 125.582 619.921 125.164C620.699 124.746 621.677 124.537 622.855 124.537C624.444 124.537 625.832 124.955 627.019 125.791C628.214 126.618 629.142 127.78 629.803 129.277C630.471 130.765 630.806 132.5 630.806 134.481C630.806 136.471 630.471 138.214 629.803 139.71C629.142 141.206 628.214 142.373 627.019 143.209C625.832 144.045 624.452 144.463 622.88 144.463C621.718 144.463 620.745 144.254 619.959 143.836C619.181 143.418 618.55 142.904 618.065 142.293C617.589 141.675 617.221 141.073 616.962 140.488H616.761V151.284H614.529ZM616.736 134.443C616.736 135.998 616.966 137.378 617.426 138.581C617.894 139.777 618.563 140.717 619.432 141.403C620.31 142.08 621.372 142.419 622.617 142.419C623.896 142.419 624.975 142.068 625.852 141.365C626.739 140.655 627.412 139.698 627.871 138.494C628.34 137.29 628.574 135.94 628.574 134.443C628.574 132.964 628.344 131.63 627.884 130.443C627.432 129.256 626.764 128.315 625.878 127.622C624.991 126.919 623.905 126.568 622.617 126.568C621.363 126.568 620.297 126.907 619.419 127.584C618.542 128.253 617.873 129.181 617.413 130.368C616.962 131.547 616.736 132.905 616.736 134.443ZM651.965 144.463C650.167 144.463 648.612 144.045 647.3 143.209C645.987 142.364 644.972 141.198 644.253 139.71C643.542 138.214 643.187 136.491 643.187 134.544C643.187 132.604 643.542 130.882 644.253 129.377C644.972 127.864 645.962 126.681 647.225 125.828C648.495 124.967 649.963 124.537 651.626 124.537C652.671 124.537 653.679 124.729 654.648 125.114C655.618 125.49 656.488 126.071 657.257 126.857C658.034 127.634 658.649 128.616 659.1 129.804C659.551 130.982 659.777 132.378 659.777 133.992V135.095H644.729V133.127H657.495C657.495 131.889 657.244 130.777 656.743 129.791C656.249 128.796 655.56 128.01 654.673 127.433C653.796 126.857 652.78 126.568 651.626 126.568C650.406 126.568 649.331 126.894 648.403 127.546C647.476 128.198 646.748 129.059 646.222 130.13C645.703 131.2 645.44 132.37 645.432 133.641V134.819C645.432 136.349 645.695 137.687 646.222 138.832C646.757 139.969 647.513 140.851 648.491 141.478C649.469 142.105 650.627 142.419 651.965 142.419C652.876 142.419 653.674 142.277 654.36 141.992C655.054 141.708 655.635 141.328 656.103 140.851C656.58 140.366 656.939 139.835 657.181 139.259L659.301 139.948C659.008 140.759 658.527 141.507 657.859 142.193C657.198 142.878 656.371 143.43 655.376 143.848C654.389 144.258 653.252 144.463 651.965 144.463ZM673.171 144.061V124.8H675.34V127.76H675.503C675.888 126.79 676.557 126.008 677.51 125.415C678.471 124.813 679.558 124.512 680.77 124.512C680.954 124.512 681.159 124.516 681.385 124.524C681.61 124.533 681.798 124.541 681.949 124.549V126.819C681.849 126.802 681.673 126.777 681.422 126.744C681.171 126.71 680.9 126.694 680.607 126.694C679.604 126.694 678.709 126.907 677.924 127.333C677.146 127.751 676.532 128.332 676.08 129.076C675.629 129.82 675.403 130.669 675.403 131.622V144.061H673.171ZM701.171 144.463C699.448 144.463 697.948 144.032 696.669 143.171C695.398 142.31 694.412 141.131 693.709 139.635C693.007 138.138 692.656 136.433 692.656 134.519C692.656 132.587 693.011 130.869 693.722 129.365C694.441 127.86 695.436 126.681 696.706 125.828C697.977 124.967 699.453 124.537 701.133 124.537C702.42 124.537 703.587 124.788 704.632 125.289C705.677 125.782 706.538 126.48 707.215 127.383C707.9 128.278 708.331 129.323 708.506 130.518H706.249C706.015 129.431 705.451 128.504 704.556 127.734C703.67 126.957 702.542 126.568 701.171 126.568C699.942 126.568 698.855 126.903 697.91 127.571C696.966 128.232 696.226 129.156 695.691 130.343C695.164 131.521 694.901 132.888 694.901 134.443C694.901 136.007 695.16 137.39 695.678 138.594C696.196 139.789 696.924 140.726 697.86 141.403C698.805 142.08 699.908 142.419 701.171 142.419C702.023 142.419 702.801 142.26 703.503 141.942C704.214 141.616 704.807 141.156 705.284 140.563C705.769 139.969 706.095 139.263 706.262 138.444H708.519C708.352 139.606 707.938 140.642 707.278 141.553C706.625 142.456 705.777 143.167 704.732 143.685C703.695 144.204 702.508 144.463 701.171 144.463ZM727.158 144.5C725.996 144.5 724.934 144.275 723.972 143.823C723.011 143.363 722.246 142.703 721.678 141.842C721.109 140.972 720.825 139.919 720.825 138.682C720.825 137.729 721.005 136.926 721.364 136.274C721.724 135.622 722.234 135.087 722.894 134.669C723.554 134.251 724.336 133.921 725.239 133.678C726.142 133.436 727.137 133.248 728.223 133.114C729.302 132.98 730.213 132.863 730.957 132.763C731.71 132.663 732.282 132.504 732.675 132.286C733.068 132.069 733.265 131.718 733.265 131.233V130.782C733.265 129.469 732.872 128.437 732.086 127.684C731.308 126.924 730.188 126.543 728.725 126.543C727.337 126.543 726.205 126.848 725.327 127.459C724.457 128.069 723.847 128.788 723.496 129.615L721.377 128.85C721.811 127.797 722.413 126.957 723.182 126.33C723.952 125.695 724.813 125.239 725.766 124.963C726.719 124.679 727.684 124.537 728.662 124.537C729.398 124.537 730.163 124.633 730.957 124.825C731.76 125.017 732.504 125.352 733.189 125.828C733.875 126.297 734.431 126.953 734.857 127.797C735.283 128.633 735.497 129.695 735.497 130.982V144.061H733.265V141.014H733.127C732.859 141.583 732.462 142.134 731.935 142.669C731.409 143.205 730.748 143.643 729.954 143.986C729.16 144.329 728.228 144.5 727.158 144.5ZM727.459 142.456C728.646 142.456 729.674 142.193 730.543 141.666C731.413 141.14 732.082 140.442 732.55 139.572C733.026 138.694 733.265 137.729 733.265 136.675V133.892C733.097 134.05 732.817 134.192 732.424 134.318C732.04 134.443 731.593 134.556 731.083 134.656C730.581 134.748 730.079 134.828 729.578 134.895C729.076 134.962 728.625 135.02 728.223 135.07C727.137 135.204 726.209 135.413 725.44 135.697C724.67 135.982 724.081 136.374 723.671 136.876C723.262 137.369 723.057 138.005 723.057 138.782C723.057 139.952 723.475 140.86 724.311 141.503C725.147 142.139 726.196 142.456 727.459 142.456ZM750.775 151.284C750.331 151.284 749.918 151.243 749.533 151.159C749.149 151.075 748.843 150.983 748.618 150.883L749.22 148.914C749.98 149.148 750.657 149.232 751.251 149.165C751.845 149.107 752.371 148.839 752.831 148.363C753.291 147.894 753.701 147.175 754.06 146.206L754.762 144.25L747.677 124.8H750.097L755.816 141.115H755.991L761.709 124.8H764.13L755.979 147.109C755.636 148.037 755.214 148.81 754.712 149.428C754.21 150.055 753.629 150.519 752.969 150.82C752.317 151.13 751.585 151.284 750.775 151.284ZM781.765 144.5C780.603 144.5 779.541 144.275 778.58 143.823C777.618 143.363 776.853 142.703 776.285 141.842C775.717 140.972 775.432 139.919 775.432 138.682C775.432 137.729 775.612 136.926 775.971 136.274C776.331 135.622 776.841 135.087 777.501 134.669C778.162 134.251 778.943 133.921 779.846 133.678C780.749 133.436 781.744 133.248 782.831 133.114C783.909 132.98 784.82 132.863 785.565 132.763C786.317 132.663 786.89 132.504 787.282 132.286C787.675 132.069 787.872 131.718 787.872 131.233V130.782C787.872 129.469 787.479 128.437 786.693 127.684C785.916 126.924 784.795 126.543 783.332 126.543C781.945 126.543 780.812 126.848 779.934 127.459C779.065 128.069 778.454 128.788 778.103 129.615L775.984 128.85C776.419 127.797 777.021 126.957 777.79 126.33C778.559 125.695 779.42 125.239 780.373 124.963C781.326 124.679 782.292 124.537 783.27 124.537C784.005 124.537 784.77 124.633 785.565 124.825C786.367 125.017 787.111 125.352 787.797 125.828C788.482 126.297 789.038 126.953 789.464 127.797C789.891 128.633 790.104 129.695 790.104 130.982V144.061H787.872V141.014H787.734C787.466 141.583 787.069 142.134 786.543 142.669C786.016 143.205 785.356 143.643 784.561 143.986C783.767 144.329 782.835 144.5 781.765 144.5ZM782.066 142.456C783.253 142.456 784.281 142.193 785.151 141.666C786.02 141.14 786.689 140.442 787.157 139.572C787.634 138.694 787.872 137.729 787.872 136.675V133.892C787.705 134.05 787.425 134.192 787.032 134.318C786.647 134.443 786.2 134.556 785.69 134.656C785.188 134.748 784.687 134.828 784.185 134.895C783.684 134.962 783.232 135.02 782.831 135.07C781.744 135.204 780.816 135.413 780.047 135.697C779.278 135.982 778.688 136.374 778.279 136.876C777.869 137.369 777.664 138.005 777.664 138.782C777.664 139.952 778.082 140.86 778.918 141.503C779.754 142.139 780.804 142.456 782.066 142.456Z" fill="white"/>
</svg>
